<svg width="101" height="24" viewBox="0 0 101 24" fill="none" xmlns="http://www.w3.org/2000/svg">
<g clip-path="url(#clip0_8_469)">
<path d="M7.43016 3.74585C8.87446 3.74585 10.1326 4.03886 11.2047 4.62488C12.2768 5.21089 13.1106 6.0745 13.7062 7.21569C14.3018 8.35689 14.5996 9.73711 14.5996 11.3564V20.216H10.9814V16.3298H3.83428V20.216H0.260742V11.3564C0.260742 9.73711 0.558537 8.35689 1.15413 7.21569C1.74972 6.0745 2.58354 5.21089 3.65561 4.62488C4.72767 4.03886 5.98585 3.74585 7.43016 3.74585ZM10.9814 13.3226V11.0094C10.9814 9.66772 10.6612 8.65761 10.021 7.97906C9.38071 7.28509 8.50966 6.93811 7.40782 6.93811C6.29109 6.93811 5.4126 7.28509 4.77234 7.97906C4.14697 8.65761 3.83428 9.66772 3.83428 11.0094V13.3226H10.9814Z" fill="#3D8FEC"/>
<path d="M33.3137 7.58581C34.8176 7.58581 36.0088 8.04846 36.8873 8.97375C37.7806 9.88362 38.2273 11.2561 38.2273 13.0913V20.216H34.7431V13.6465C34.7431 12.6595 34.5421 11.927 34.1401 11.4489C33.753 10.9554 33.1946 10.7087 32.465 10.7087C31.6461 10.7087 30.9984 10.9863 30.5219 11.5414C30.0454 12.0812 29.8072 12.8908 29.8072 13.9703V20.216H26.323V13.6465C26.323 11.6879 25.5636 10.7087 24.0449 10.7087C23.2408 10.7087 22.6005 10.9863 22.1241 11.5414C21.6476 12.0812 21.4094 12.8908 21.4094 13.9703V20.216H17.9252V7.77087H21.253V9.20507C21.6997 8.68074 22.2432 8.27978 22.8834 8.00219C23.5386 7.7246 24.2533 7.58581 25.0276 7.58581C25.8763 7.58581 26.6431 7.76316 27.328 8.11785C28.013 8.45713 28.5639 8.95833 28.9808 9.62145C29.4722 8.97375 30.0901 8.47255 30.8346 8.11785C31.594 7.76316 32.4203 7.58581 33.3137 7.58581Z" fill="#3D8FEC"/>
<path d="M60.1037 7.76977V14.6401C60.1037 16.4752 59.6197 17.894 58.6519 18.8964C57.6841 19.8988 56.3068 20.4 54.52 20.4C53.6564 20.4 52.8896 20.2612 52.2195 19.9836C51.5644 19.706 51.0135 19.2588 50.5668 18.6419C50.1201 19.2588 49.5692 19.706 48.914 19.9836C48.2589 20.2612 47.4846 20.4 46.5912 20.4C44.7896 20.4 43.4122 19.8988 42.4593 18.8964C41.5064 17.894 41.0299 16.4752 41.0299 14.6401V7.76977H44.5141V14.3625C44.5141 15.3957 44.6853 16.1591 45.0278 16.6526C45.3703 17.1306 45.9063 17.3697 46.6359 17.3697C47.3804 17.3697 47.9313 17.1229 48.2886 16.6294C48.646 16.1359 48.8247 15.3803 48.8247 14.3625V7.76977H52.3089V14.3625C52.3089 15.3803 52.4876 16.1359 52.8449 16.6294C53.2023 17.1229 53.7532 17.3697 54.4977 17.3697C55.2273 17.3697 55.7633 17.1306 56.1058 16.6526C56.4482 16.1591 56.6195 15.3957 56.6195 14.3625V7.76977H60.1037Z" fill="#555555"/>
<path d="M68.9529 20.4C67.6873 20.4 66.5482 20.1301 65.5357 19.5904C64.5381 19.0352 63.7564 18.2718 63.1905 17.3003C62.6247 16.3287 62.3418 15.2261 62.3418 13.9924C62.3418 12.7586 62.6247 11.656 63.1905 10.6844C63.7564 9.71288 64.5381 8.95723 65.5357 8.41747C66.5482 7.8623 67.6873 7.58471 68.9529 7.58471C70.2185 7.58471 71.3501 7.8623 72.3477 8.41747C73.3454 8.95723 74.1271 9.71288 74.6929 10.6844C75.2587 11.656 75.5416 12.7586 75.5416 13.9924C75.5416 15.2261 75.2587 16.3287 74.6929 17.3003C74.1271 18.2718 73.3454 19.0352 72.3477 19.5904C71.3501 20.1301 70.2185 20.4 68.9529 20.4ZM68.9529 17.4391C69.8463 17.4391 70.5759 17.1306 71.1417 16.5138C71.7224 15.8815 72.0127 15.041 72.0127 13.9924C72.0127 12.9437 71.7224 12.1109 71.1417 11.4941C70.5759 10.8618 69.8463 10.5456 68.9529 10.5456C68.0595 10.5456 67.3225 10.8618 66.7418 11.4941C66.1611 12.1109 65.8707 12.9437 65.8707 13.9924C65.8707 15.041 66.1611 15.8815 66.7418 16.5138C67.3225 17.1306 68.0595 17.4391 68.9529 17.4391Z" fill="#555555"/>
<path d="M81.1984 9.41216C81.6153 8.81072 82.1736 8.35579 82.8735 8.04736C83.5882 7.73893 84.4071 7.58471 85.3303 7.58471V10.9158C84.9431 10.8849 84.6826 10.8695 84.5486 10.8695C83.5509 10.8695 82.7692 11.1625 82.2034 11.7485C81.6376 12.3191 81.3547 13.1827 81.3547 14.3393V20.2149H77.8705V7.76977H81.1984V9.41216Z" fill="#555555"/>
<path d="M92.5613 15.334L90.8862 17.0458V20.2149H87.402V3.05078H90.8862V12.7663L95.9785 7.76977H100.133L95.1298 13.0439L100.579 20.2149H96.3582L92.5613 15.334Z" fill="#555555"/>
</g>
<defs>
<clipPath id="clip0_8_469">
<rect width="100.8" height="24" fill="white"/>
</clipPath>
</defs>
</svg>
